<?xml version="1.0" encoding="utf-8"?>
<!-- Generator: Adobe Illustrator 18.0.0, SVG Export Plug-In . SVG Version: 6.00 Build 0)  -->
<!DOCTYPE svg PUBLIC "-//W3C//DTD SVG 1.1//EN" "http://www.w3.org/Graphics/SVG/1.1/DTD/svg11.dtd">
<svg version="1.1" id="Capa_1" xmlns="http://www.w3.org/2000/svg" xmlns:xlink="http://www.w3.org/1999/xlink" x="0px" y="0px"
	 viewBox="0 0 114.2 114.9" enable-background="new 0 0 114.2 114.9" xml:space="preserve">
<path fill="#DE3A60" d="M7.6,56.9l-1.5,52.2l52.2,1.5c28.8,0.8,52.9-21.9,53.7-50.8C112.9,31,90.2,6.9,61.3,6.1
	C32.5,5.3,8.5,28.1,7.6,56.9z"/>
<g>
	<path fill="#21252C" d="M73,38h-7.4v-3.9c0-0.4-0.3-0.8-0.8-0.8H51.9c-0.4,0-0.8,0.3-0.8,0.8V38h-7.5c-0.8,0-1.5,0.7-1.5,1.5v43.7
		c0,0.8,0.7,1.5,1.5,1.5H73c0.8,0,1.5-0.7,1.5-1.5V39.5C74.5,38.7,73.8,38,73,38z"/>
	<rect x="45" y="48.9" fill="#85CAD3" width="26.6" height="32.9"/>
	<path fill="#ECECEB" d="M60.6,54.7L53,66.3h4.9L55.9,76l7.7-11.4h-4.8L60.6,54.7z M60.6,54.7"/>
</g>
</svg>
