<?xml version="1.0" encoding="utf-8"?>
<!-- Generator: Adobe Illustrator 18.0.0, SVG Export Plug-In . SVG Version: 6.00 Build 0)  -->
<!DOCTYPE svg PUBLIC "-//W3C//DTD SVG 1.1//EN" "http://www.w3.org/Graphics/SVG/1.1/DTD/svg11.dtd">
<svg version="1.1" id="Capa_1" xmlns="http://www.w3.org/2000/svg" xmlns:xlink="http://www.w3.org/1999/xlink" x="0px" y="0px"
	 viewBox="0 0 114.2 114.9" enable-background="new 0 0 114.2 114.9" xml:space="preserve">
<path fill="#85CAD3" d="M7.7,56.9l-1.5,52.2l52.2,1.5c28.8,0.8,52.9-21.9,53.7-50.8C113,31,90.2,6.9,61.4,6.1
	C32.5,5.3,8.5,28.1,7.7,56.9z"/>
<g>
	<path fill="#21252C" d="M45.1,28.8h28.1c2.4,0,4.3,1.9,4.3,4.3v50.5c0,2.4-1.9,4.3-4.3,4.3H45.1c-2.4,0-4.3-1.9-4.3-4.3V33.1
		C40.8,30.7,42.7,28.8,45.1,28.8L45.1,28.8z M45.1,28.8"/>
	<path fill="#EDC02F" d="M75.2,33.8V83c0,0.7-0.3,1.3-0.7,1.8c-0.5,0.5-1.1,0.7-1.8,0.7H45.7c-0.7,0-1.3-0.3-1.8-0.7
		c-0.5-0.5-0.7-1.1-0.7-1.8V33.8c0-0.7,0.3-1.3,0.7-1.8c0.5-0.5,1.1-0.7,1.8-0.7h5.4c0.4,0,0.8,0.2,1,0.6l0.8,1.6
		c0.2,0.4,0.6,0.6,1,0.6h10.5c0.4,0,0.8-0.2,1-0.6l0.8-1.6c0.2-0.4,0.6-0.6,1-0.6h5.5c0.7,0,1.3,0.3,1.8,0.7
		C74.9,32.4,75.2,33.1,75.2,33.8L75.2,33.8z M75.2,33.8"/>
	<path fill="#21252C" d="M52.2,81.5h13.9c0.5,0,0.9,0.4,0.9,0.9c0,0.5-0.4,0.9-0.9,0.9H52.2c-0.5,0-0.9-0.4-0.9-0.9
		C51.4,81.9,51.8,81.5,52.2,81.5L52.2,81.5z M52.2,81.5"/>
	<path fill="#DE3A60" d="M57.5,68.8h3.4l0.3-2.2c0.8-0.2,1.6-0.5,2.3-1l2,1.5l2.4-2.4l-1.5-2c0.4-0.7,0.8-1.5,1-2.3l2-0.3v-3.4
		l-2-0.3c-0.2-0.8-0.5-1.6-1-2.3l1.3-1.7l-2.4-2.4l-1.7,1.3c-0.7-0.4-1.5-0.8-2.3-1L60.9,48h-3.4l-0.3,2.2c-0.8,0.2-1.6,0.5-2.3,1
		l-1.7-1.3l-2.4,2.4L52,54c-0.4,0.7-0.8,1.5-1,2.3l-2,0.3v3.4l2,0.3c0.2,0.8,0.5,1.6,1,2.3l-1.3,1.7l2.4,2.4l1.7-1.3
		c0.7,0.4,1.5,0.8,2.3,1L57.5,68.8z M54.5,59c-0.3-2,0.8-3.9,2.6-4.8c1.8-0.9,3.9-0.6,5.4,0.8c1.4,1.4,1.8,3.5,1,5.4
		c-0.8,1.8-2.7,2.9-4.7,2.7C56.5,62.8,54.8,61.1,54.5,59L54.5,59z M54.5,59"/>
</g>
</svg>
